v -0.998764 0.000000 0.855374
v -0.995009 0.000000 0.734068
v -0.988665 0.000000 0.617520
v -0.979662 0.000000 0.505660
v -0.967930 0.000000 0.398418
v -0.953399 0.000000 0.295724
v -0.936000 0.000000 0.197508
v -0.915662 0.000000 0.103701
v -0.892315 0.000000 0.014231
v -0.865889 0.000000 -0.070970
v -0.836315 0.000000 -0.151973
v -0.803522 0.000000 -0.228847
v -0.767440 0.000000 -0.301664
v -0.728000 0.000000 -0.370492
v -0.685131 0.000000 -0.435401
v -0.638764 0.000000 -0.496463
v -0.588828 0.000000 -0.553745
v -0.535254 0.000000 -0.607320
v -0.477971 0.000000 -0.657256
v -0.416910 0.000000 -0.703623
v -0.352000 0.000000 -0.746492
v -0.283172 0.000000 -0.785932
v -0.210356 0.000000 -0.822014
v -0.133481 0.000000 -0.854807
v -0.052478 0.000000 -0.884381
v 0.032723 0.000000 -0.910807
v 0.122192 0.000000 -0.934154
v 0.216000 0.000000 -0.954492
v 0.314216 0.000000 -0.971891
v 0.416910 0.000000 -0.986422
v 0.524152 0.000000 -0.998154
v 0.636012 0.000000 -1.000000
v 0.752560 0.000000 -1.000000
v 0.873866 0.000000 -1.000000
v 1.000000 0.000000 -1.000000
v -1.000000 0.000000 1.000000
v 1.000000 0.000000 1.000000
vt 0.168439 0.125745
vt 0.800371 0.899721
vt 0.380342 0.014529
vt 0.419796 0.993525
vt 0.500000 1.000000
vt 0.580206 0.993525
vt 0.860601 0.846362
vt 0.911492 0.784032
vt 0.951725 0.714346
vt 0.980259 0.639109
vt 0.996354 0.560268
vt 0.341667 0.974269
vt 0.267639 0.942729
vt 0.199630 0.899722
vt 0.088509 0.784033
vt 0.139399 0.846363
vt 0.019741 0.639109
vt 0.048275 0.714347
vt 0.000405 0.479867
vt 0.003646 0.560269
vt 0.032492 0.322698
vt 0.010105 0.399987
vt 0.112698 0.183777
vt 0.066987 0.250000
vt 0.232767 0.077405
vt 0.304017 0.040010
vt 0.540233 0.001621
vt 0.459767 0.001621
vt 0.695983 0.040010
vt 0.619658 0.014529
vt 0.831561 0.125745
vt 0.767233 0.077405
vt 0.933013 0.250000
vt 0.887302 0.183777
vt 0.989895 0.399987
vt 0.967508 0.322698
vt 0.999595 0.479867
vn 0.0000 1.0000 0.0000
f 16/1/1 37/2/1 19/3/1
f 2/4/1 1/5/1 37/2/1
f 1/5/1 36/6/1 37/2/1
f 37/2/1 35/7/1 34/8/1
f 34/8/1 33/9/1 37/2/1
f 33/9/1 32/10/1 37/2/1
f 37/2/1 32/10/1 31/11/1
f 3/12/1 37/2/1 4/13/1
f 3/12/1 2/4/1 37/2/1
f 5/14/1 4/13/1 37/2/1
f 7/15/1 6/16/1 37/2/1
f 6/16/1 5/14/1 37/2/1
f 9/17/1 8/18/1 37/2/1
f 8/18/1 7/15/1 37/2/1
f 11/19/1 10/20/1 37/2/1
f 10/20/1 9/17/1 37/2/1
f 13/21/1 12/22/1 37/2/1
f 12/22/1 11/19/1 37/2/1
f 15/23/1 14/24/1 37/2/1
f 14/24/1 13/21/1 37/2/1
f 17/25/1 16/1/1 19/3/1
f 16/1/1 15/23/1 37/2/1
f 19/3/1 18/26/1 17/25/1
f 21/27/1 20/28/1 37/2/1
f 20/28/1 19/3/1 37/2/1
f 23/29/1 22/30/1 37/2/1
f 22/30/1 21/27/1 37/2/1
f 25/31/1 24/32/1 37/2/1
f 24/32/1 23/29/1 37/2/1
f 27/33/1 26/34/1 37/2/1
f 26/34/1 25/31/1 37/2/1
f 29/35/1 28/36/1 37/2/1
f 28/36/1 27/33/1 37/2/1
f 31/11/1 30/37/1 37/2/1
f 30/37/1 29/35/1 37/2/1
