# Blender v2.90.0 OBJ File: 'Farmland.blend'
# www.blender.org
o FencePole_Plane.003
v 1.000000 -0.000000 -1.000000
v 0.951651 0.000000 -0.951651
v 0.951651 0.000000 -1.000000
v 0.951651 0.450000 -0.951651
v 0.951651 0.450000 -1.000000
v 1.000000 0.000000 -0.951651
v 1.000000 0.450000 -0.951651
v 1.000000 0.450000 -1.000000
v 1.000000 0.118988 -0.951651
v 1.000000 0.186717 -0.951651
v 1.000000 0.292766 -0.951651
v 1.000000 0.360495 -0.951651
v 0.951649 0.186717 -1.000000
v 0.951649 0.118988 -0.999999
v 0.951649 0.292766 -0.999999
v 0.951649 0.360495 -0.999999
v 0.951651 0.450000 -0.951651
v 0.951651 0.450000 -0.951651
v 0.951651 0.000000 -0.951651
v 0.951651 0.450000 -1.000000
v 0.951651 0.450000 -1.000000
v 1.000000 0.450000 -0.951651
v 1.000000 0.450000 -0.951651
v 1.000000 0.450000 -1.000000
v 1.000000 0.450000 -1.000000
v 1.000000 0.186717 -0.951651
v 1.000000 0.118988 -0.951651
v 1.000000 0.360495 -0.951651
v 1.000000 0.292766 -0.951651
v 1.000000 0.000000 -0.951651
v 0.951649 0.292766 -0.999999
v 0.951649 0.360495 -0.999999
v 0.951651 0.000000 -1.000000
v 0.951649 0.118988 -0.999999
v 0.951649 0.186717 -1.000000
v 1.000000 -0.000000 -1.000000
vt 0.610113 0.815449
vt 0.566966 0.844806
vt 0.534239 0.844922
vt 0.540689 0.844900
vt 0.511382 0.815800
vt 0.540586 0.815696
vt 0.392667 0.816221
vt 0.392770 0.845425
vt 0.450163 0.816017
vt 0.392667 0.816221
vt 0.450267 0.845221
vt 0.482994 0.845105
vt 0.534135 0.815718
vt 0.566863 0.815602
vt 0.610217 0.844653
vt 0.392770 0.845425
vt 0.392667 0.816221
vt 0.450267 0.845220
vt 0.482994 0.845104
vt 0.610217 0.844653
vt 0.511486 0.845003
vt 0.610217 0.844653
vt 0.610113 0.815449
vt 0.566863 0.815603
vt 0.534135 0.815719
vt 0.482891 0.815901
vt 0.610217 0.844653
vt 0.610113 0.815449
vt 0.566966 0.844807
vt 0.534239 0.844923
vt 0.392770 0.845425
vt 0.610113 0.815449
vt 0.392770 0.845425
vt 0.482891 0.815900
vt 0.450163 0.816016
vt 0.392667 0.816221
vn -1.0000 0.0000 0.0000
vn 0.0000 1.0000 0.0000
vn 1.0000 0.0000 0.0000
vn 0.0000 0.0000 1.0000
vn -0.0000 0.0000 -1.0000
s 1
f 17/1/1 32/2/1 31/3/1
f 22/4/2 21/5/2 18/6/2
f 6/7/3 36/8/3 27/9/3
f 2/10/4 9/11/4 10/12/4
f 15/13/5 16/14/5 8/15/5
f 33/16/1 19/17/1 34/18/1
f 19/17/1 17/1/1 35/19/1
f 34/18/1 19/17/1 35/19/1
f 17/1/1 20/20/1 32/2/1
f 31/3/1 35/19/1 17/1/1
f 22/4/2 24/21/2 21/5/2
f 25/22/3 23/23/3 28/24/3
f 29/25/3 26/26/3 25/22/3
f 26/26/3 27/9/3 36/8/3
f 25/22/3 26/26/3 36/8/3
f 25/22/3 28/24/3 29/25/3
f 7/27/4 4/28/4 12/29/4
f 4/28/4 2/10/4 10/12/4
f 12/29/4 4/28/4 11/30/4
f 2/10/4 30/31/4 9/11/4
f 10/12/4 11/30/4 4/28/4
f 5/32/5 8/15/5 16/14/5
f 8/15/5 1/33/5 13/34/5
f 13/34/5 1/33/5 14/35/5
f 1/33/5 3/36/5 14/35/5
f 13/34/5 15/13/5 8/15/5
