# Blender v2.81 (sub 16) OBJ File: 'roads.blend'
# www.blender.org
o Plane.005_Plane.008
v -1.000000 0.000000 -0.800000
v -0.800000 0.000000 -1.000000
v -0.800000 0.000000 -0.800000
v 1.000000 0.000000 -0.800000
v 0.800000 0.000000 -1.000000
v 0.800000 0.000000 -0.800000
v 1.000000 0.000000 0.800000
v 0.800000 0.000000 1.000000
v 0.800000 0.000000 0.800000
v -1.000000 0.000000 0.800000
v -0.800000 0.000000 1.000000
v -0.800000 0.000000 0.800000
vt 0.900000 0.900000
vt 0.100000 0.900000
vt 0.100000 0.100000
vt 0.100000 0.000000
vt 0.900000 0.000000
vt 0.900000 0.100000
vt 1.000000 0.100000
vt 1.000000 0.900000
vt 0.900000 1.000000
vt 0.100000 1.000000
vt 0.000000 0.900000
vt 0.000000 0.100000
vn 0.0000 1.0000 0.0000
s off
f 6/1/1 3/2/1 12/3/1
f 11/4/1 8/5/1 9/6/1
f 9/6/1 7/7/1 4/8/1
f 6/1/1 5/9/1 2/10/1
f 9/6/1 4/8/1 6/1/1
f 12/3/1 11/4/1 9/6/1
f 1/11/1 10/12/1 12/3/1
f 6/1/1 2/10/1 3/2/1
f 3/2/1 1/11/1 12/3/1
f 12/3/1 9/6/1 6/1/1
