# Blender v2.90.0 OBJ File: 'WheatFarm.blend'
# www.blender.org
o Plane_Plane.012
v -6.000000 0.000000 1.000000
v -6.000000 0.000000 -1.000000
v 1.000000 0.000000 1.000000
v 1.000000 0.000000 -1.000000
vt 0.600000 0.000000
vt 0.000000 1.000000
vt 0.000000 0.000000
vt 0.600000 1.000000
vn 0.0000 1.0000 0.0000
s off
f 3/1/1 2/2/1 1/3/1
f 3/1/1 4/4/1 2/2/1
o BoundingBox
v -3.0000 0.1000 -3.0000
v -2.6549 4.8500 -2.3940
v 2.5951 4.8500 -2.3940
v -2.6549 4.8500 2.0060
v 2.5951 4.8500 2.0060
v -2.6549 0.1000 2.0060
v 2.5951 0.1000 2.0060
v -2.6549 0.1000 -2.3940
v 2.5951 0.1000 -2.3940
v -3.0000 0.1000 3.0000
v 3.0000 0.1000 3.0000
v 3.0000 0.1000 -3.0000
v -3.0000 0.0000 3.0000
v -3.0000 0.0000 -3.0000
v 3.0000 0.0000 3.0000
v 3.0000 0.0000 -3.0000
f 12 9 7
f 16 1 12
f 6 1 10
f 13 11 10
f 5 2 4
f 7 6 10
f 5 3 2
f 15 12 11
f 1 9 12
f 11 12 7
f 9 8 2
f 6 7 5
f 8 6 4
f 16 14 1
f 6 8 1
f 5 9 3
f 1 8 9
f 14 13 10
f 9 2 3
f 8 4 2
f 15 16 12
f 13 15 11
f 14 10 1
f 11 7 10
f 5 7 9
f 6 5 4